<svg height="457pt" viewBox="0 -72 457.14286 457" width="457pt" xmlns="http://www.w3.org/2000/svg"><path d="m457.144531 156.644531c0-3.964843-2.558593-7.480469-6.332031-8.703125l-91.554688-29.605468 91.550782-29.550782c3.777344-1.21875 6.335937-4.730468 6.335937-8.699218 0-3.964844-2.558593-7.484376-6.332031-8.703126l-219.339844-70.871093c-1.828125-.5859378-3.796875-.5859378-5.621094 0l-219.515624 70.871093c-3.777344 1.21875-6.335938 4.738282-6.335938 8.707032 0 3.964844 2.5625 7.480468 6.339844 8.695312l91.65625 29.5625-91.660156 29.59375c-3.777344 1.21875-6.335938 4.734375-6.335938 8.703125s2.558594 7.480469 6.335938 8.699219l91.703124 29.605469-91.699218 29.550781c-3.777344 1.214844-6.339844 4.730469-6.339844 8.695312 0 3.96875 2.558594 7.488282 6.335938 8.707032l219.515624 70.871094c.910157.292968 1.863282.441406 2.808594.441406.945313 0 1.898438-.148438 2.8125-.441406l219.339844-70.871094c3.773438-1.21875 6.332031-4.738282 6.332031-8.703125 0-3.96875-2.558593-7.480469-6.335937-8.699219l-91.59375-29.558594 91.597656-29.597656c3.773438-1.222656 6.332031-4.738281 6.332031-8.699219zm-228.484375-137.824219 189.585938 61.261719-189.585938 61.191407-189.730468-61.199219zm189.585938 214.386719-189.585938 61.257813-189.730468-61.253906 88.886718-28.648438 98.035156 31.652344c.910157.292968 1.863282.441406 2.808594.441406.945313 0 1.898438-.148438 2.808594-.441406l97.996094-31.664063zm-189.585938-15.300781-189.761718-61.261719 88.871093-28.695312 98.082031 31.632812c.910157.292969 1.863282.441407 2.808594.441407.945313 0 1.898438-.148438 2.808594-.441407l98.039062-31.644531 88.777344 28.707031zm0 0"/></svg>